<?xml version="1.0" encoding="UTF-8" standalone="no"?>
<svg
   version="1.1"
   viewBox="-9.0614808 -8.7118293 17.423661 17.423661"
   heigth="17.42365861051455"
   width="17.42366"
   id="svg18"
   sodipodi:docname="syncthing-symbolic.svg"
   height="17.42366"
   inkscape:version="1.1.1 (3bf5ae0d25, 2021-09-20)"
   xmlns:inkscape="http://www.inkscape.org/namespaces/inkscape"
   xmlns:sodipodi="http://sodipodi.sourceforge.net/DTD/sodipodi-0.dtd"
   xmlns="http://www.w3.org/2000/svg"
   xmlns:svg="http://www.w3.org/2000/svg">
  <defs
     id="defs22" />
  <sodipodi:namedview
     id="namedview20"
     pagecolor="#ffffff"
     bordercolor="#666666"
     borderopacity="1.0"
     inkscape:pageshadow="2"
     inkscape:pageopacity="0.0"
     inkscape:pagecheckerboard="0"
     showgrid="false"
     inkscape:zoom="44.537145"
     inkscape:cx="24.170835"
     inkscape:cy="16.121375"
     inkscape:window-width="3840"
     inkscape:window-height="2123"
     inkscape:window-x="0"
     inkscape:window-y="0"
     inkscape:window-maximized="1"
     inkscape:current-layer="svg18"
     lock-margins="true"
     fit-margin-top="20"
     fit-margin-left="0"
     fit-margin-right="0"
     fit-margin-bottom="0" />
  <circle
     cx="-0.02365955"
     cy="0.0062881503"
     style="display:inline;fill:none;fill-opacity:0;stroke:#bebebe;stroke-width:1.5"
     id="circle2"
     r="7" />
  <path
     d="m 1.7263405,1.0562882 m -1.80000005,0 a 1.8,1.8 0 1 1 3.60000005,0 1.8,1.8 0 1 1 -3.60000005,0"
     style="display:inline;fill:#bebebe;fill-opacity:1;stroke:none"
     id="path4" />
  <path
     d="m 6.0385183,-3.4937118 m -1.8,0 a 1.8,1.8 0 1 1 3.6,0 1.8,1.8 0 1 1 -3.6,0"
     style="display:inline;fill:#bebebe;fill-opacity:1;stroke:none"
     id="path6" />
  <line
     x1="6.038518"
     y1="-3.4937117"
     x2="1.7263404"
     y2="1.0562881"
     style="display:inline;fill:none;stroke:#bebebe;stroke-width:1.2"
     id="line8" />
  <path
     d="m -6.7851403,1.8180215 m -1.8,0 a 1.8,1.8 0 1 1 3.6,0 1.8,1.8 0 1 1 -3.6,0"
     style="display:inline;fill:#bebebe;fill-opacity:1;stroke:none"
     id="path10" />
  <line
     x1="-6.7851405"
     y1="1.8180215"
     x2="1.7263404"
     y2="1.0562881"
     style="display:inline;fill:none;stroke:#bebebe;stroke-width:1.2"
     id="line12" />
  <path
     d="m 4.4758538,5.3685993 m -1.8,0 a 1.8,1.8 0 1 1 3.6,0 1.8,1.8 0 1 1 -3.6,0"
     style="display:inline;fill:#bebebe;fill-opacity:1;stroke:none"
     id="path14" />
  <line
     x1="4.4758534"
     y1="5.3685989"
     x2="1.7263404"
     y2="1.0562881"
     style="display:inline;fill:none;stroke:#bebebe;stroke-width:1.2"
     id="line16" />
</svg>
